<?xml version="1.0" encoding="UTF-8"?>
<svg id="Layer_2" data-name="Layer 2" xmlns="http://www.w3.org/2000/svg" viewBox="0 0 55.91 30">
  <defs>
    <style>
      .cls-1 {
        fill: #ed1e78;
      }

      .cls-1, .cls-2 {
        stroke-width: 0px;
      }

      .cls-2 {
        fill: #2d3194;
      }
    </style>
  </defs>
  <g id="Layer_1-2" data-name="Layer 1">
    <g>
      <polygon class="cls-2" points="55.91 18.03 54.85 18.17 54.85 2.85 55.91 2.85 55.91 18.03"/>
      <rect class="cls-2" x="40.04" y="7.42" width="1.06" height="10.29"/>
      <path class="cls-2" d="M55.91,12.18v6.85c0,1.39-1.13,2.52-2.52,2.52h-28.16c-1.47-1.79-2.46-3.49-3.27-4.41v-4.96s33.95,0,33.95,0Z"/>
      <polygon class="cls-2" points="19.38 19.14 18.32 19.14 18.42 0 19.48 0 19.38 19.14"/>
      <rect class="cls-2" x="0" width="1.06" height="17.82"/>
      <path class="cls-2" d="M19.42,12.4v6.79c0,1.41-1.16,2.55-2.57,2.52H3.22c-1.32-1.48-2.15-2.3-3.2-3.58,0-2.79-.02-6.16-.02-6.16l19.42.44Z"/>
      <path class="cls-2" d="M41.11,3.28v6.1h-19.15V0h15.89c1.35,1.29,2.2,2.16,3.26,3.28Z"/>
      <rect class="cls-1" x="40.94" y="23.39" width="5.48" height="5.48" transform="translate(31.27 -23.24) rotate(45)"/>
      <rect class="cls-1" x="49.29" y="23.39" width="5.48" height="5.48" transform="translate(33.71 -29.14) rotate(45)"/>
      <g>
        <path class="cls-1" d="M10.26,4.32c.16,0,.29-.13.29-.29s-.13-.29-.29-.29-.29.13-.29.29.13.29.29.29Z"/>
        <path class="cls-1" d="M9,5.4c.12,0,.22-.1.22-.22s-.1-.22-.22-.22-.22.1-.22.22.1.22.22.22Z"/>
        <path class="cls-1" d="M9.61,1.97c.12,0,.22-.1.22-.22s-.1-.22-.22-.22-.22.1-.22.22.1.22.22.22Z"/>
        <path class="cls-1" d="M8.8,3.11c.12,0,.22-.1.22-.22s-.1-.22-.22-.22-.22.1-.22.22.1.22.22.22Z"/>
        <path class="cls-1" d="M9.71,0l-1.66,1.66h1.18c.04-.17.19-.3.38-.3.21,0,.39.17.39.39s-.17.39-.39.39c-.18,0-.34-.13-.38-.3h-1.34l-.98.98h1.52c.04-.17.19-.3.38-.3.21,0,.39.17.39.39s-.17.39-.39.39c-.18,0-.34-.13-.38-.3h-1.68l-.9.9.06.06h3.88c.05-.22.25-.39.49-.39.27,0,.5.22.5.5s-.22.5-.5.5c-.24,0-.44-.17-.49-.39h-3.67l.96.96h1.56c.04-.17.19-.3.38-.3.21,0,.39.17.39.39s-.17.39-.39.39c-.18,0-.34-.13-.38-.3h-1.4l2.48,2.48,3.87-3.87-3.87-3.87Z"/>
      </g>
    </g>
  </g>
</svg>